<svg aria-hidden="true" style="width:0;height:0;position:absolute;overflow:hidden" xmlns="http://www.w3.org/2000/svg"><defs><symbol id="icon-search" viewBox="0 0 32 32"><path d="m31.008 27.231-7.58-6.447c-.784-.705-1.622-1.029-2.299-.998a11.954 11.954 0 0 0 2.87-7.787c0-6.627-5.373-12-12-12s-12 5.373-12 12 5.373 12 12 12c2.972 0 5.691-1.081 7.787-2.87-.031.677.293 1.515.998 2.299l6.447 7.58c1.104 1.226 2.907 1.33 4.007.23s.997-2.903-.23-4.007zM12 20a8 8 0 1 1 0-16 8 8 0 0 1 0 16z"/></symbol><symbol id="icon-up" viewBox="0 0 32 32"><path d="M16 .32C7.341.32.32 7.341.32 16S7.341 31.68 16 31.68c8.659 0 15.68-7.021 15.68-15.68S24.659.32 16 .32zm0 2.906c7.04 0 12.749 5.709 12.749 12.749S23.04 28.724 16 28.724 3.251 23.015 3.251 15.975C3.251 8.932 8.96 3.226 16 3.226z"/><path d="M16.077 11.117h.013c.374.022.739.182 1.011.477l5.315 5.754c.557.605.522 1.555-.083 2.112s-1.555.522-2.112-.083L16 14.811l-4.221 4.57c-.557.605-1.51.64-2.112.083a1.499 1.499 0 0 1-.083-2.112l5.318-5.754a1.497 1.497 0 0 1 1.011-.477h.119c.013-.003.029-.003.045-.003z"/></symbol></defs></svg>