<svg aria-hidden="true" style="position: absolute; width: 0; height: 0; overflow: hidden;" version="1.1" xmlns="http://www.w3.org/2000/svg" xmlns:xlink="http://www.w3.org/1999/xlink">
<defs>
<symbol id="icon-search" viewBox="0 0 32 32">
<path d="M31.008 27.231l-7.58-6.447c-0.784-0.705-1.622-1.029-2.299-0.998 1.789-2.096 2.87-4.815 2.87-7.787 0-6.627-5.373-12-12-12s-12 5.373-12 12 5.373 12 12 12c2.972 0 5.691-1.081 7.787-2.87-0.031 0.677 0.293 1.515 0.998 2.299l6.447 7.58c1.104 1.226 2.907 1.33 4.007 0.23s0.997-2.903-0.23-4.007zM12 20c-4.418 0-8-3.582-8-8s3.582-8 8-8 8 3.582 8 8-3.582 8-8 8z"></path>
</symbol>

<symbol id="icon-up" viewBox="0 0 32 32">
<path d="M16 0.32c-8.659 0-15.68 7.021-15.68 15.68s7.021 15.68 15.68 15.68c8.659 0 15.68-7.021 15.68-15.68s-7.021-15.68-15.68-15.68zM16 3.226c7.040 0 12.749 5.709 12.749 12.749s-5.709 12.749-12.749 12.749-12.749-5.709-12.749-12.749c0-7.043 5.709-12.749 12.749-12.749z"></path>
<path d="M16.077 11.117c0.003 0 0.006 0 0.013 0 0.374 0.022 0.739 0.182 1.011 0.477l5.315 5.754c0.557 0.605 0.522 1.555-0.083 2.112s-1.555 0.522-2.112-0.083l-4.221-4.566-4.221 4.57c-0.557 0.605-1.51 0.64-2.112 0.083-0.605-0.557-0.64-1.51-0.083-2.112l5.318-5.754c0.272-0.294 0.637-0.454 1.011-0.477 0.003 0 0.006 0 0.013 0 0.016 0 0.032 0 0.048 0 0.010 0 0.019 0 0.029 0s0.019 0 0.029 0c0.013-0.003 0.029-0.003 0.045-0.003z"></path>
</symbol>
</defs>
</svg>
